<?xml version="1.0" encoding="UTF-8"?><svg id="Ebene_1" xmlns="http://www.w3.org/2000/svg" width="1920" height="1080" viewBox="0 0 1920 1080"><defs><style>.cls-1{fill:#def8ff;stroke-width:0px;}</style></defs><path class="cls-1" d="M1735.93,350.53c-50.59-5.09-67.24-13.2-115.49-11.73-61.27,1.86-66.37,15.91-126.32,18.05-62.72,2.23-63.61-12.92-130.19-12.47-63.2.42-76.12,14.16-136.88,15.18-50.51.85-91.77-7.8-118.6-15.18l-62.76,6.16-46.92,27.07-114.41-7.63-53.42,22.97-28.18-37.14h-265.28l-7.9,8.26s-51.43-34.29-58.87-34.97c-7.44-.68-84.59,49.4-84.79,55.22s-52.66,96.14-52.66,96.14l-114.82-152.64c-5.76,9.37-11.52,18.75-17.29,28.12-3.64,3.21-10.29,8.2-19.85,10.83-11.54,3.18-21.2,1.24-27.04,0-14.53-3.09-13.35-7.63-23.49-9.02-18.61-2.56-26.94,12.14-38.8,6.32-6.75-3.32-11.18-11.59-17.14-9.93-1.33.37-2.19,1.08-2.53,1.35-8.11,6.39-36.97,9.69-38.24,9.87-11.28,1.58-21.06,62.47-16.48,310.96,0,0,110.48,75.74,114.09,68.52s553.1-13.53,553.1-13.53l471.77-10.28s600.15-127.77,632.63-132.28c16.24-2.26,45.7-63.35,71.1-123.87,20.39-48.6,37.24-89.57,46.74-120.49-73.02,11.99-131.09,10.18-171.07,6.16Z"/></svg>